<svg width="1200" height="600" viewBox="0 0 1200 600" fill="none" xmlns="http://www.w3.org/2000/svg">
<rect width="1200" height="600" fill="white"/>
<path d="M762.918 457.644C861.472 367.478 868.811 215.452 778.644 116.898C688.478 18.3436 536.452 11.0044 437.898 101.171C339.344 191.338 332.004 343.363 422.171 441.918C431.607 451.354 441.043 460.79 451.528 469.177" stroke="black" stroke-width="2.51628" stroke-linecap="round" stroke-linejoin="round"/>
<path d="M447.334 151.497C454.673 136.818 467.255 126.334 481.933 121.092C495.563 113.752 512.338 112.704 527.016 116.898" stroke="black" stroke-width="2.51628" stroke-linecap="round" stroke-linejoin="round"/>
<path d="M754.53 151.497C738.803 123.189 706.301 109.559 674.848 116.898" stroke="black" stroke-width="2.51628" stroke-linecap="round" stroke-linejoin="round"/>
<path d="M579.439 339.169C564.76 337.072 550.082 331.83 537.501 323.442" stroke="black" stroke-width="2.51628" stroke-linecap="round" stroke-linejoin="round"/>
<path d="M664.363 323.442C650.733 330.781 636.055 336.023 620.328 339.169" stroke="black" stroke-width="2.51628" stroke-linecap="round" stroke-linejoin="round"/>
<path d="M619.28 308.766C619.28 298.281 609.844 288.845 599.359 288.845C588.875 288.845 579.439 298.281 579.439 308.766" stroke="black" stroke-width="2.51628" stroke-linecap="round" stroke-linejoin="round"/>
<path d="M579.439 401.028V308.764" stroke="black" stroke-width="2.51628" stroke-linecap="round" stroke-linejoin="round"/>
<path d="M619.28 308.764V402.077" stroke="black" stroke-width="2.51628" stroke-linecap="round" stroke-linejoin="round"/>
<path d="M612.989 401.028C630.813 401.028 644.443 414.658 644.443 432.482C644.443 438.773 644.443 451.354 644.443 451.354C647.588 451.354 675.896 451.354 687.429 451.354C701.059 450.305 713.64 458.693 716.786 472.323C719.931 485.953 713.64 499.583 702.108 505.873C696.865 509.019 690.575 512.164 685.332 515.309C664.363 526.842 642.346 538.375 620.328 549.908C600.408 560.393 578.39 564.587 556.373 560.393C518.629 554.102 493.466 518.455 499.757 479.662C501.853 463.935 504.999 448.209 510.241 433.53C516.532 414.658 534.355 401.028 554.276 401.028H612.989V401.028Z" stroke="black" stroke-width="2.51628" stroke-miterlimit="10"/>
<path d="M537.501 195.531C537.501 213.355 523.871 226.985 506.047 226.985C488.223 226.985 474.594 213.355 474.594 195.531C474.594 177.707 488.223 164.078 506.047 164.078C522.822 164.078 537.501 177.708 537.501 194.483V195.531Z" fill="black"/>
<path d="M726.222 195.531C726.222 213.355 712.592 226.985 694.768 226.985C676.945 226.985 663.315 213.355 663.315 195.531C663.315 177.707 676.945 164.078 694.768 164.078C711.543 164.078 726.222 177.708 726.222 194.483V195.531Z" fill="black"/>
<path d="M602.505 447.159C588.875 447.159 581.536 454.499 576.293 462.886C570.003 472.322 576.293 485.952 586.778 485.952H631.861C639.2 485.952 644.443 479.661 644.443 471.274V452.402V451.353" stroke="black" stroke-width="2.51628" stroke-miterlimit="10" stroke-linecap="round" stroke-linejoin="round"/>
</svg>
